<svg xmlns="http://www.w3.org/2000/svg" xmlns:xlink="http://www.w3.org/1999/xlink" version="1.1" x="0px" y="0px" viewBox="0 0 100 125" style="enable-background:new 0 0 100 100;" xml:space="preserve"><path d="M85.9,87c0,1.7-1.3,3-3,3H70.9c-1.7,0-3-1.3-3-3V75.1c0-1.7,1.3-3,3-3s3,1.3,3,3v5.3c9.3-7.3,14.9-18.6,14.9-30.6  C88.8,28.4,71.4,11,50,11c-1.7,0-3-1.3-3-3s1.3-3,3-3c24.7,0,44.8,20.1,44.8,44.8c0,13.3-6,25.8-15.9,34.2h4  C84.5,84,85.9,85.4,85.9,87z M50,89c-21.4,0-38.8-17.4-38.8-38.8c0-12,5.6-23.3,14.9-30.6v5.3c0,1.7,1.3,3,3,3s3-1.3,3-3V13  c0-1.7-1.3-3-3-3H17.1c-1.7,0-3,1.3-3,3s1.3,3,3,3h4c-10,8.4-15.9,20.9-15.9,34.2C5.2,74.9,25.3,95,50,95c1.7,0,3-1.3,3-3  S51.7,89,50,89z"/><text x="0" y="115" fill="#000000" font-size="5px" font-weight="bold" font-family="'Helvetica Neue', Helvetica, Arial-Unicode, Arial, Sans-serif">Created by IconMark</text><text x="0" y="120" fill="#000000" font-size="5px" font-weight="bold" font-family="'Helvetica Neue', Helvetica, Arial-Unicode, Arial, Sans-serif">from the Noun Project</text></svg>